<?xml version="1.0" encoding="UTF-8"?>
<svg version="1.1" xmlns="http://www.w3.org/2000/svg" width="500" height="500">
<path d="M0 0 C7.92 0 15.84 0 24 0 C24 12.87 24 25.74 24 39 C26.97 26.13 29.94 13.26 33 0 C40.59 0 48.18 0 56 0 C54.875 9 54.875 9 53.96861267 12.91027832 C53.66364113 14.23938232 53.66364113 14.23938232 53.35250854 15.59533691 C53.1316861 16.53905151 52.91086365 17.48276611 52.68334961 18.45507812 C52.44911789 19.47061768 52.21488617 20.48615723 51.97355652 21.5324707 C51.20362707 24.86629106 50.42802608 28.19876392 49.65234375 31.53125 C49.1153359 33.85144056 48.57868432 36.17171361 48.04237366 38.49206543 C46.63375296 44.58212676 45.22030951 50.6710588 43.80584717 56.75976562 C42.361782 62.97979187 40.92229681 69.20087769 39.48242188 75.421875 C36.65942046 87.61562378 33.8308986 99.80808221 31 112 C23.41 112 15.82 112 8 112 C8 97.48 8 82.96 8 68 C3.05 89.78 3.05 89.78 -2 112 C-9.92 112 -17.84 112 -26 112 C-23.79385481 102.26902126 -21.58553265 92.53854274 -19.37377167 82.80883884 C-18.34590786 78.28682398 -17.31885896 73.76462787 -16.29394531 69.24194336 C-11.05186166 46.1132171 -5.66382693 23.02931562 0 0 Z " fill="#FEFEFE" transform="translate(355,171)"/>
<path d="M0 0 C1.00544357 -0.0082077 2.01088715 -0.01641541 3.04679871 -0.02487183 C3.69382657 -0.03017473 4.34085443 -0.03547764 5.0074892 -0.04094124 C6.42094443 -0.05243693 7.83440106 -0.06376122 9.247859 -0.07491875 C12.15305772 -0.09802137 15.05819099 -0.12204295 17.96328735 -0.15582275 C40.42213484 -0.41525214 40.42213484 -0.41525214 46.5625 4.375 C51.34279377 9.52300867 51.65710668 14.13795593 51.45458984 20.97949219 C50.72070715 31.8569333 47.72379994 42.56942349 45.26513672 53.15881348 C44.662344 55.77725529 44.07885891 58.39983576 43.4956255 61.02269173 C42.7849955 64.20764087 42.05807187 67.3888469 41.33203125 70.5703125 C40.94420219 72.30210251 40.94420219 72.30210251 40.54853821 74.06887817 C37.25013694 88.17928453 32.83219088 102.74322144 20 111 C14.79715626 113.18413236 10.20152001 113.26303989 4.6640625 113.1953125 C3.34503433 113.19106766 3.34503433 113.19106766 1.99935913 113.18673706 C-0.79223594 113.17559712 -3.5835029 113.15050411 -6.375 113.125 C-8.27473493 113.1149622 -10.17447492 113.10583775 -12.07421875 113.09765625 C-16.71627107 113.07567806 -21.35808002 113.0411911 -26 113 C-23.79277906 103.28653725 -21.58410435 93.57340618 -19.37377167 83.86065102 C-18.34650176 79.34637827 -17.31965975 74.83200926 -16.29394531 70.31738281 C-10.9627578 46.85419638 -5.55305205 23.41173017 0 0 Z M19 21 C16.90859987 29.79577496 14.82201698 38.59267457 12.74157715 47.39104843 C11.77539798 51.47643445 10.80756331 55.56141343 9.8359375 59.64550781 C8.89835143 63.58679159 7.96512433 67.52908417 7.03491211 71.47211456 C6.67923066 72.97636929 6.32197939 74.48025373 5.96313477 75.98375702 C5.46084717 78.08944994 4.96415403 80.19638955 4.46875 82.30371094 C4.18451172 83.50284119 3.90027344 84.70197144 3.60742188 85.93743896 C2.87030118 89.13355907 2.87030118 89.13355907 3 93 C7.69964424 92.81031919 7.69964424 92.81031919 11.58422852 90.51220703 C13.63777313 86.86830737 14.42003722 83.11380468 15.33984375 79.0546875 C15.54807266 78.17080353 15.75630157 77.28691956 15.97084045 76.37625122 C16.63551401 73.5445425 17.28657887 70.70989789 17.9375 67.875 C18.37087618 66.02193206 18.80511298 64.16906517 19.24023438 62.31640625 C20.30586886 57.76529355 21.35394617 53.21039063 22.39324951 48.65319824 C22.99264091 46.03217983 23.59981773 43.41304748 24.20751953 40.79394531 C24.57757848 39.17783279 24.9472283 37.56162651 25.31640625 35.9453125 C25.48768539 35.21311493 25.65896454 34.48091736 25.83543396 33.72653198 C26.65199824 30.11164742 27.40106474 26.70782864 27 23 C25.10244856 20.65026182 25.10244856 20.65026182 21.875 20.875 C20.451875 20.936875 20.451875 20.936875 19 21 Z " fill="#FEFEFE" transform="translate(106,170)"/>
<path d="M0 0 C5.53129812 7.09140784 5.3710235 14.63996047 4.39501953 23.26391602 C3.29574754 32.11275739 3.29574754 32.11275739 2 36 C-5.59 36 -13.18 36 -21 36 C-20.21875 31.55664062 -20.21875 31.55664062 -19.4375 27.11328125 C-19.04931926 24.35095938 -18.91740024 21.78257957 -19 19 C-20.65 18.67 -22.3 18.34 -24 18 C-27.03370848 21.44170377 -28.61152287 24.1028622 -29.64746094 28.56542969 C-29.90742859 29.65716492 -30.16739624 30.74890015 -30.4352417 31.87371826 C-30.69895569 33.04460999 -30.96266968 34.21550171 -31.234375 35.421875 C-31.65870819 37.24371307 -31.65870819 37.24371307 -32.09161377 39.10235596 C-32.68628761 41.66985562 -33.27556264 44.23789829 -33.85595703 46.80859375 C-34.44859197 49.43159877 -35.0515665 52.05182615 -35.66552734 54.66992188 C-36.5538004 58.45975963 -37.42782269 62.2525882 -38.296875 66.046875 C-38.56868591 67.2096698 -38.84049683 68.3724646 -39.12054443 69.57049561 C-40.5322791 75.87323969 -41.29567647 81.54126363 -41 88 C-38.08961458 87.97474816 -38.08961458 87.97474816 -35 87 C-32.08512695 82.33620312 -30.9671312 77.4264195 -29.8125 72.125 C-29.54663086 70.949375 -29.54663086 70.949375 -29.27539062 69.75 C-28.84332211 67.83488549 -28.42068646 65.91764692 -28 64 C-29.65 64 -31.3 64 -33 64 C-32.37993914 56.55926968 -30.86367309 50.45469235 -29 43 C-19.76 43 -10.52 43 -1 43 C-2.125 54.25 -2.125 54.25 -3.30688477 59.27587891 C-3.56707901 60.39628571 -3.82727325 61.5166925 -4.09535217 62.67105103 C-4.37455002 63.84436981 -4.65374786 65.0176886 -4.94140625 66.2265625 C-5.22853989 67.45539154 -5.51567352 68.68422058 -5.81150818 69.95028687 C-6.56813927 73.1833324 -7.33017606 76.41500124 -8.0949707 79.64611816 C-8.87719782 82.95700165 -9.65213892 86.26958922 -10.42773438 89.58203125 C-11.94518706 96.05626531 -13.47047328 102.52860826 -15 109 C-18.63 109 -22.26 109 -26 109 C-26.33 107.02 -26.66 105.04 -27 103 C-27.58265625 103.40992188 -28.1653125 103.81984375 -28.765625 104.2421875 C-36.58381231 109.38055589 -44.52932247 112.09410221 -53.9375 110.375 C-57.72067963 109.28040915 -60.32640292 107.98813791 -63 105 C-69.52749155 92.84536056 -65.39693166 78.33557816 -62.375 65.6875 C-62.00698281 64.10134181 -61.64013445 62.514912 -61.27441406 60.92822266 C-60.54255831 57.76587106 -59.80146215 54.60592068 -59.05175781 51.44775391 C-58.10392168 47.45299496 -57.18513879 43.4523769 -56.2734375 39.44921875 C-55.76682949 37.25753373 -55.25910457 35.06610644 -54.75 32.875 C-54.41814697 31.42226685 -54.41814697 31.42226685 -54.07958984 29.94018555 C-51.18274307 17.7818164 -47.12883385 6.73287862 -36.3125 -0.4375 C-25.81529025 -6.16325077 -9.97045458 -7.71299317 0 0 Z " fill="#FEFEFE" transform="translate(343,174)"/>
<path d="M0 0 C4.18256725 5.25502039 5.1520114 9.13492435 5.1875 15.75 C5.20167969 16.94109375 5.21585937 18.1321875 5.23046875 19.359375 C5 23 5 23 3 30 C-4.59 30 -12.18 30 -20 30 C-20 26.04 -20 22.08 -20 18 C-22.97065509 18.34227572 -22.97065509 18.34227572 -26 19 C-27.79056024 22.58112048 -27.03488577 26.23193514 -26 30 C-24.11302087 33.09402315 -21.76302463 35.65398235 -19.3125 38.3125 C-10.56559939 48.44427128 -4.61559566 56.97234508 -5.484375 70.83984375 C-6.71321517 82.80976162 -11.20813232 95.48454554 -20.015625 103.93359375 C-27.7507844 110.08924541 -36.41911116 111.44310224 -46.1328125 110.7890625 C-52.320269 109.96716978 -57.76616633 108.86519483 -62 104 C-68.87517335 92.89585312 -63.61459051 78.6022454 -61 67 C-53.41 67 -45.82 67 -38 67 C-39 76 -39 76 -40 80 C-40.06456879 81.41534778 -40.08611039 82.83337689 -40.0625 84.25 C-40.041875 85.4875 -40.02125 86.725 -40 88 C-37.03 87.505 -37.03 87.505 -34 87 C-30.74146985 78.11263078 -30.74146985 78.11263078 -32 69 C-34.05013138 65.44810065 -36.50839477 62.25205925 -39 59 C-52.83879203 40.68947121 -52.83879203 40.68947121 -52.34375 30.35546875 C-50.60339918 18.4301103 -46.52934044 8.12945626 -36.9375 0.5 C-26.73883038 -6.44918948 -10.23223943 -7.67417957 0 0 Z " fill="#FEFEFE" transform="translate(257,174)"/>
<path d="M0 0 C15.18 0 30.36 0 46 0 C42 19 42 19 41 22 C33.74 22.33 26.48 22.66 19 23 C17.72571094 28.8331036 17.72571094 28.8331036 16.45727539 34.66748047 C16.29735107 35.39338379 16.13742676 36.11928711 15.97265625 36.8671875 C15.81031494 37.61081543 15.64797363 38.35444336 15.48071289 39.12060547 C15 41 15 41 14 43 C20.93 43 27.86 43 35 43 C34.0409375 47.888125 34.0409375 47.888125 33.0625 52.875 C32.76291382 54.41389893 32.76291382 54.41389893 32.45727539 55.98388672 C32.29735107 56.79100098 32.13742676 57.59811523 31.97265625 58.4296875 C31.81031494 59.25710449 31.64797363 60.08452148 31.48071289 60.93701172 C31 63 31 63 30 65 C27.03 65 24.06 65 21 65 C21 65.66 21 66.32 21 67 C20.01 67 19.02 67 18 67 C18 66.34 18 65.68 18 65 C15.03 65 12.06 65 9 65 C8.73445313 66.30195313 8.46890625 67.60390625 8.1953125 68.9453125 C7.8387317 70.67191426 7.48195027 72.39847459 7.125 74.125 C6.95097656 74.9809375 6.77695313 75.836875 6.59765625 76.71875 C6.42363281 77.55664062 6.24960938 78.39453125 6.0703125 79.2578125 C5.91320801 80.0223877 5.75610352 80.78696289 5.59423828 81.57470703 C4.89492852 84.42883322 3.9292508 87.21224761 3 90 C10.59 90 18.18 90 26 90 C25 99 25 99 22 112 C6.16 112 -9.68 112 -26 112 C-21.40230844 90.16096509 -21.40230844 90.16096509 -19.6340332 82.52124023 C-19.43023041 81.63410339 -19.22642761 80.74696655 -19.01644897 79.83294678 C-18.36304754 76.9910728 -17.70706725 74.14980284 -17.05078125 71.30859375 C-16.58798463 69.30031741 -16.12527371 67.29202133 -15.66264343 65.28370667 C-14.70331947 61.12122784 -13.74263596 56.95906577 -12.78100586 52.79711914 C-11.5473212 47.45697995 -10.31767528 42.11591956 -9.08906269 36.77461147 C-8.13949213 32.64881953 -7.18756971 28.52357298 -6.2349453 24.39848518 C-5.78002069 22.42702518 -5.32589578 20.45538046 -4.87258339 18.48354912 C-4.24341834 15.74814778 -3.61103323 13.01351083 -2.9777832 10.27905273 C-2.69805412 9.05823753 -2.69805412 9.05823753 -2.41267395 7.8127594 C-1.11421517 2.22843035 -1.11421517 2.22843035 0 0 Z " fill="#FEFEFE" transform="translate(165,171)"/>
<path d="M0 0 C7.59 0 15.18 0 23 0 C20.79385481 9.73097874 18.58553265 19.46145726 16.37377167 29.19116116 C15.34590786 33.71317602 14.31885896 38.23537213 13.29394531 42.75805664 C8.05186166 65.8867829 2.66382693 88.97068438 -3 112 C-10.59 112 -18.18 112 -26 112 C-23.17602607 98.39639762 -20.1776262 84.8454058 -17.05078125 71.30859375 C-16.58798463 69.30031741 -16.12527371 67.29202133 -15.66264343 65.28370667 C-14.70331947 61.12122784 -13.74263596 56.95906577 -12.78100586 52.79711914 C-11.5473212 47.45697995 -10.31767528 42.11591956 -9.08906269 36.77461147 C-8.13949213 32.64881953 -7.18756971 28.52357298 -6.2349453 24.39848518 C-5.78002069 22.42702518 -5.32589578 20.45538046 -4.87258339 18.48354912 C-4.24341834 15.74814778 -3.61103323 13.01351083 -2.9777832 10.27905273 C-2.69805412 9.05823753 -2.69805412 9.05823753 -2.41267395 7.8127594 C-1.11421517 2.22843035 -1.11421517 2.22843035 0 0 Z " fill="#FEFEFE" transform="translate(271,171)"/>
<path d="M0 0 C6.8359375 -0.1953125 6.8359375 -0.1953125 9 0 C9.66 0.66 10.32 1.32 11 2 C10.68143549 4.00240549 10.34578768 6.00211562 10 8 C10.37617294 11.26410357 10.37617294 11.26410357 11 14 C9.68 14 8.36 14 7 14 C6.67 12.35 6.34 10.7 6 9 C5.34 9 4.68 9 4 9 C4 10.65 4 12.3 4 14 C2.68 14 1.36 14 0 14 C0 9.38 0 4.76 0 0 Z M4 3 C4.33 3.99 4.66 4.98 5 6 C5.66 5.67 6.32 5.34 7 5 C7 4.34 7 3.68 7 3 C6.01 3 5.02 3 4 3 Z " fill="#000000" transform="translate(202,224)"/>
<path d="M0 0 C1.32 0 2.64 0 4 0 C5.32 2.31 6.64 4.62 8 7 C8.33 4.69 8.66 2.38 9 0 C9.99 0 10.98 0 12 0 C12 4.62 12 9.24 12 14 C8 13 8 13 5.75 9.9375 C5.1725 8.968125 4.595 7.99875 4 7 C3.67 9.31 3.34 11.62 3 14 C2.01 14 1.02 14 0 14 C0 9.38 0 4.76 0 0 Z " fill="#1B1B1B" transform="translate(259,225)"/>
<path d="M0 0 C0.99 0 1.98 0 3 0 C3 1.65 3 3.3 3 5 C4.98 5 6.96 5 9 5 C9 3.35 9 1.7 9 0 C9.99 0 10.98 0 12 0 C12 4.62 12 9.24 12 14 C11.01 14 10.02 14 9 14 C9 12.02 9 10.04 9 8 C7.02 8 5.04 8 3 8 C3 9.98 3 11.96 3 14 C2.01 14 1.02 14 0 14 C0 9.38 0 4.76 0 0 Z " fill="#2C2C2C" transform="translate(157,224)"/>
<path d="M0 0 C1.32 0 2.64 0 4 0 C4.67260351 1.76858691 5.33788395 3.53996016 6 5.3125 C6.37125 6.29863281 6.7425 7.28476563 7.125 8.30078125 C8 11 8 11 8 14 C7.01 14 6.02 14 5 14 C5 13.01 5 12.02 5 11 C2.02934491 11.34227572 2.02934491 11.34227572 -1 12 C-1.33 12.66 -1.66 13.32 -2 14 C-2.99 13.67 -3.98 13.34 -5 13 C-4.35780498 11.01964979 -3.71114356 9.04074744 -3.0625 7.0625 C-2.70285156 5.96035156 -2.34320313 4.85820312 -1.97265625 3.72265625 C-1 1 -1 1 0 0 Z " fill="#1D1D1D" transform="translate(232,225)"/>
<path d="M0 0 C0.66 0.33 1.32 0.66 2 1 C2 1.99 2 2.98 2 4 C-0.31 3.67 -2.62 3.34 -5 3 C-5 5.64 -5 8.28 -5 11 C-1.535 10.505 -1.535 10.505 2 10 C1.34 11.32 0.68 12.64 0 14 C-5.33333333 14.35555556 -5.33333333 14.35555556 -7.875 13 C-9.68523932 9.78179676 -9.53967465 6.59783102 -9 3 C-6.87757591 -0.77319839 -4.02174082 -0.34227581 0 0 Z " fill="#080808" transform="translate(142,224)"/>
<path d="M0 0 C2.64 0 5.28 0 8 0 C8.33 1.65 8.66 3.3 9 5 C8.34 5 7.68 5 7 5 C6.67 4.34 6.34 3.68 6 3 C3.97536745 2.34786708 3.97536745 2.34786708 2 2 C2 3.32 2 4.64 2 6 C3.65 6 5.3 6 7 6 C7.33 6.66 7.66 7.32 8 8 C6.02 8 4.04 8 2 8 C2 9.32 2 10.64 2 12 C3.65 12 5.3 12 7 12 C7 12.66 7 13.32 7 14 C4.69 14 2.38 14 0 14 C0 9.38 0 4.76 0 0 Z " fill="#070707" transform="translate(352,221)"/>
<path d="M0 0 C2.475 0.495 2.475 0.495 5 1 C5 1.66 5 2.32 5 3 C5.66 3 6.32 3 7 3 C8.35439668 5.70879335 8.06501451 8.00933268 8 11 C7.01 11.33 6.02 11.66 5 12 C5 11.34 5 10.68 5 10 C3.35 10 1.7 10 0 10 C0 8.68 0 7.36 0 6 C1.65 5.67 3.3 5.34 5 5 C3.35 4.67 1.7 4.34 0 4 C0 2.68 0 1.36 0 0 Z " fill="#2C2C2C" transform="translate(354,223)"/>
<path d="M0 0 C0.99 0 1.98 0 3 0 C3.05389087 1.95803507 3.09274217 3.91648909 3.125 5.875 C3.14820313 6.96554688 3.17140625 8.05609375 3.1953125 9.1796875 C3 12 3 12 1 14 C-2.125 14.125 -2.125 14.125 -5 14 C-5 12.68 -5 11.36 -5 10 C-2.525 10.99 -2.525 10.99 0 12 C0 8.04 0 4.08 0 0 Z " fill="#181818" transform="translate(293,225)"/>
<path d="M0 0 C0.99 0 1.98 0 3 0 C3 4.62 3 9.24 3 14 C2.01 14 1.02 14 0 14 C0 11.69 0 9.38 0 7 C-1.98 7 -3.96 7 -6 7 C-6 6.67 -6 6.34 -6 6 C-4.02 6 -2.04 6 0 6 C0 4.02 0 2.04 0 0 Z " fill="#222222" transform="translate(166,224)"/>
<path d="M0 0 C0.99 0 1.98 0 3 0 C3 4.62 3 9.24 3 14 C2.01 14 1.02 14 0 14 C0 9.38 0 4.76 0 0 Z " fill="#232323" transform="translate(183,224)"/>
<path d="M0 0 C0.99 0 1.98 0 3 0 C3 4.62 3 9.24 3 14 C2.01 14 1.02 14 0 14 C0 9.38 0 4.76 0 0 Z " fill="#1D1D1D" transform="translate(323,224)"/>
<path d="M0 0 C1.32 0 2.64 0 4 0 C4.33 1.32 4.66 2.64 5 4 C4.34 4 3.68 4 3 4 C3.33 5.65 3.66 7.3 4 9 C2.68 9 1.36 9 0 9 C-1.125 6.75 -1.125 6.75 -2 4 C-1.125 1.6875 -1.125 1.6875 0 0 Z " fill="#585858" transform="translate(232,225)"/>
<path d="M0 0 C3.0625 0.125 3.0625 0.125 5.0625 1.125 C5.0625 2.115 5.0625 3.105 5.0625 4.125 C2.7525 3.795 0.4425 3.465 -1.9375 3.125 C-2.2675 5.105 -2.5975 7.085 -2.9375 9.125 C-3.9275 7.805 -4.9175 6.485 -5.9375 5.125 C-3.53035214 0.15022775 -3.53035214 0.15022775 0 0 Z " fill="#222222" transform="translate(138.9375,223.875)"/>
<path d="M0 0 C0.12375 0.639375 0.2475 1.27875 0.375 1.9375 C0.684375 2.9584375 0.684375 2.9584375 1 4 C1.66 4.33 2.32 4.66 3 5 C2.01 5 1.02 5 0 5 C-0.33 6.32 -0.66 7.64 -1 9 C-1.99 8.67 -2.98 8.34 -4 8 C-1.125 1.125 -1.125 1.125 0 0 Z " fill="#111111" transform="translate(231,230)"/>
<path d="M0 0 C1.65 0 3.3 0 5 0 C5 1.32 5 2.64 5 4 C3.35 4 1.7 4 0 4 C0 2.68 0 1.36 0 0 Z " fill="#E1E1E1" transform="translate(354,229)"/>
<path d="M0 0 C2.475 0.495 2.475 0.495 5 1 C4.67 1.99 4.34 2.98 4 4 C2.68 4 1.36 4 0 4 C0 2.68 0 1.36 0 0 Z " fill="#CACACA" transform="translate(354,223)"/>
<path d="M0 0 C0.33 0 0.66 0 1 0 C1.33 4.29 1.66 8.58 2 13 C1.01 13 0.02 13 -1 13 C-0.67 8.71 -0.34 4.42 0 0 Z " fill="#000000" transform="translate(184,225)"/>
<path d="M0 0 C2.64 0 5.28 0 8 0 C8.33 1.65 8.66 3.3 9 5 C8.34 5 7.68 5 7 5 C6.67 4.01 6.34 3.02 6 2 C3.03 1.505 3.03 1.505 0 1 C0 0.67 0 0.34 0 0 Z " fill="#171717" transform="translate(352,221)"/>
</svg>
